<svg width="1600" height="1200" viewBox="0 0 1600 1200" xmlns="http://www.w3.org/2000/svg">
  <defs>
    <filter id="shadow" x="-20%" y="-20%" width="140%" height="140%">
      <feDropShadow dx="0" dy="14" stdDeviation="24" flood-color="#10151C" flood-opacity="0.12"/>
    </filter>
  </defs>

  <!-- fond -->
  <rect width="1600" height="1200" fill="#ECE6D8"/>

  <!-- connecteurs (sous les fenetres) -->
  <g stroke="#10151C" stroke-opacity="0.30" stroke-width="2.5" fill="none" stroke-linecap="round" stroke-dasharray="1 9">
    <path d="M364,177 C 440,177 505,190 560,210"/>
    <path d="M1234,520 C 1234,584 1180,622 1112,646"/>
    <path d="M660,860 C 660,908 600,900 522,884"/>
  </g>

  <!-- carte fantome (profondeur) -->
  <rect x="278" y="246" width="860" height="650" rx="20" fill="#10151C" fill-opacity="0.05"/>

  <!-- ===== FENETRE PRINCIPALE : tableau de bord ===== -->
  <g filter="url(#shadow)">
    <rect x="250" y="210" width="860" height="650" rx="20" fill="#F7F3EA" stroke="#10151C" stroke-opacity="0.14" stroke-width="1.5"/>
  </g>
  <line x1="250" y1="266" x2="1110" y2="266" stroke="#10151C" stroke-opacity="0.08" stroke-width="1.5"/>
  <circle cx="286" cy="238" r="7" fill="#10151C" fill-opacity="0.16"/>
  <circle cx="312" cy="238" r="7" fill="#10151C" fill-opacity="0.16"/>
  <circle cx="338" cy="238" r="7" fill="#10151C" fill-opacity="0.16"/>
  <rect x="380" y="231" width="140" height="14" rx="5" fill="#10151C" fill-opacity="0.12"/>

  <!-- barre laterale -->
  <line x1="370" y1="266" x2="370" y2="860" stroke="#10151C" stroke-opacity="0.08" stroke-width="1.5"/>
  <rect x="250" y="292" width="5" height="36" rx="2.5" fill="#C8A24B"/>
  <g stroke="#10151C" fill="none" stroke-width="2.5">
    <rect x="293" y="293" width="34" height="34" rx="9" stroke-opacity="0.55"/>
    <circle cx="310" cy="310" r="5.5" stroke-opacity="0.55"/>
    <rect x="293" y="361" width="34" height="34" rx="9" stroke-opacity="0.30"/>
    <path d="M301,372 H319 M301,381 H319" stroke-opacity="0.30"/>
    <rect x="293" y="429" width="34" height="34" rx="9" stroke-opacity="0.30"/>
    <polyline points="300,455 307,446 314,450 320,441" stroke-opacity="0.30"/>
    <rect x="293" y="497" width="34" height="34" rx="9" stroke-opacity="0.30"/>
    <circle cx="310" cy="514" r="7" stroke-opacity="0.30"/>
    <rect x="293" y="565" width="34" height="34" rx="9" stroke-opacity="0.30"/>
    <path d="M301,588 H319" stroke-opacity="0.30"/>
    <circle cx="310" cy="577" r="2.5" stroke-opacity="0.30"/>
  </g>

  <!-- entete de contenu -->
  <rect x="410" y="300" width="270" height="18" rx="6" fill="#10151C" fill-opacity="0.30"/>
  <rect x="410" y="326" width="170" height="10" rx="4" fill="#10151C" fill-opacity="0.12"/>
  <rect x="960" y="294" width="130" height="42" rx="11" fill="#C8A24B"/>
  <rect x="986" y="311" width="78" height="9" rx="4" fill="#F7F3EA" fill-opacity="0.9"/>

  <!-- liste de taches -->
  <rect x="400" y="490" width="700" height="66" rx="12" fill="#10151C" fill-opacity="0.045"/>
  <line x1="410" y1="430" x2="1090" y2="430" stroke="#10151C" stroke-opacity="0.06" stroke-width="1.5"/>
  <line x1="410" y1="494" x2="1090" y2="494" stroke="#10151C" stroke-opacity="0.06" stroke-width="1.5"/>
  <line x1="410" y1="558" x2="1090" y2="558" stroke="#10151C" stroke-opacity="0.06" stroke-width="1.5"/>

  <!-- rangee 1 : terminee -->
  <circle cx="436" cy="396" r="14" fill="#C8A24B"/>
  <path d="M428,397 L434,403 L447,390" stroke="#F7F3EA" stroke-width="4.5" fill="none" stroke-linecap="round" stroke-linejoin="round"/>
  <rect x="470" y="382" width="320" height="15" rx="5" fill="#10151C" fill-opacity="0.24"/>
  <rect x="470" y="405" width="200" height="9" rx="4" fill="#10151C" fill-opacity="0.11"/>
  <rect x="1000" y="384" width="76" height="26" rx="13" fill="#C8A24B" fill-opacity="0.16"/>
  <circle cx="1016" cy="397" r="4.5" fill="#C8A24B"/>
  <rect x="1028" y="394" width="36" height="7" rx="3" fill="#10151C" fill-opacity="0.18"/>

  <!-- rangee 2 : terminee -->
  <circle cx="436" cy="460" r="14" fill="#C8A24B"/>
  <path d="M428,461 L434,467 L447,454" stroke="#F7F3EA" stroke-width="4.5" fill="none" stroke-linecap="round" stroke-linejoin="round"/>
  <rect x="470" y="446" width="360" height="15" rx="5" fill="#10151C" fill-opacity="0.24"/>
  <rect x="470" y="469" width="160" height="9" rx="4" fill="#10151C" fill-opacity="0.11"/>
  <rect x="1000" y="448" width="76" height="26" rx="13" fill="#C8A24B" fill-opacity="0.16"/>
  <circle cx="1016" cy="461" r="4.5" fill="#C8A24B"/>
  <rect x="1028" y="458" width="36" height="7" rx="3" fill="#10151C" fill-opacity="0.18"/>

  <!-- rangee 3 : active -->
  <circle cx="436" cy="524" r="14" stroke="#C8A24B" stroke-width="3" fill="none"/>
  <circle cx="436" cy="524" r="5" fill="#C8A24B"/>
  <rect x="470" y="510" width="280" height="15" rx="5" fill="#10151C" fill-opacity="0.24"/>
  <rect x="470" y="533" width="220" height="9" rx="4" fill="#10151C" fill-opacity="0.11"/>
  <rect x="1000" y="512" width="76" height="26" rx="13" fill="#10151C" fill-opacity="0.07"/>
  <circle cx="1016" cy="525" r="4.5" fill="#C8A24B"/>
  <rect x="1028" y="522" width="36" height="7" rx="3" fill="#10151C" fill-opacity="0.20"/>

  <!-- rangee 4 : a venir -->
  <circle cx="436" cy="588" r="14" stroke="#10151C" stroke-opacity="0.28" stroke-width="2.5" fill="none"/>
  <rect x="470" y="574" width="300" height="15" rx="5" fill="#10151C" fill-opacity="0.24"/>
  <rect x="470" y="597" width="150" height="9" rx="4" fill="#10151C" fill-opacity="0.11"/>
  <rect x="1000" y="576" width="76" height="26" rx="13" fill="#10151C" fill-opacity="0.05"/>
  <circle cx="1016" cy="589" r="4.5" fill="#10151C" fill-opacity="0.20"/>
  <rect x="1028" y="586" width="36" height="7" rx="3" fill="#10151C" fill-opacity="0.12"/>

  <!-- panneau graphe -->
  <rect x="410" y="636" width="680" height="196" rx="14" fill="#FBF8F0" stroke="#10151C" stroke-opacity="0.10" stroke-width="1.5"/>
  <rect x="436" y="660" width="120" height="11" rx="4" fill="#10151C" fill-opacity="0.18"/>
  <circle cx="950" cy="666" r="4" fill="#10151C" fill-opacity="0.25"/>
  <rect x="960" y="662" width="32" height="7" rx="3" fill="#10151C" fill-opacity="0.12"/>
  <circle cx="1020" cy="666" r="4" fill="#C8A24B"/>
  <rect x="1030" y="662" width="32" height="7" rx="3" fill="#10151C" fill-opacity="0.12"/>
  <g stroke="#10151C" stroke-opacity="0.06" stroke-width="1.5">
    <path d="M436,706 H1064 M436,744 H1064 M436,782 H1064"/>
  </g>
  <path d="M436,806 H1064" stroke="#10151C" stroke-opacity="0.12" stroke-width="1.5"/>
  <path d="M436,796 C 540,792 660,786 780,780 C 880,775 980,772 1064,766" stroke="#10151C" stroke-opacity="0.18" stroke-width="3" fill="none"/>
  <path d="M436,788 C 500,782 540,760 610,750 C 680,740 720,712 800,700 C 870,690 920,668 1000,652 C 1030,646 1050,642 1064,640" stroke="#C8A24B" stroke-width="4.5" fill="none" stroke-linecap="round"/>
  <circle cx="610" cy="750" r="6.5" fill="#C8A24B" stroke="#FBF8F0" stroke-width="3"/>
  <circle cx="800" cy="700" r="6.5" fill="#C8A24B" stroke="#FBF8F0" stroke-width="3"/>
  <circle cx="1000" cy="652" r="6.5" fill="#C8A24B" stroke="#FBF8F0" stroke-width="3"/>

  <!-- ===== FENETRE SATELLITE : conversation d'agent ===== -->
  <g filter="url(#shadow)">
    <rect x="1020" y="130" width="430" height="390" rx="20" fill="#F7F3EA" stroke="#10151C" stroke-opacity="0.14" stroke-width="1.5"/>
  </g>
  <line x1="1020" y1="184" x2="1450" y2="184" stroke="#10151C" stroke-opacity="0.08" stroke-width="1.5"/>
  <circle cx="1052" cy="157" r="6" fill="#10151C" fill-opacity="0.16"/>
  <circle cx="1076" cy="157" r="6" fill="#10151C" fill-opacity="0.16"/>
  <circle cx="1100" cy="157" r="6" fill="#10151C" fill-opacity="0.16"/>
  <rect x="1130" y="151" width="110" height="12" rx="5" fill="#10151C" fill-opacity="0.12"/>

  <circle cx="1066" cy="232" r="15" fill="#10151C" fill-opacity="0.16"/>
  <circle cx="1077" cy="243" r="5" fill="#C8A24B" stroke="#F7F3EA" stroke-width="2.5"/>
  <rect x="1092" y="206" width="250" height="62" rx="16" fill="#E9E1CD"/>
  <rect x="1112" y="224" width="190" height="11" rx="4" fill="#10151C" fill-opacity="0.22"/>
  <rect x="1112" y="242" width="140" height="9" rx="4" fill="#10151C" fill-opacity="0.13"/>

  <rect x="1170" y="286" width="250" height="54" rx="16" fill="#10151C" fill-opacity="0.06"/>
  <rect x="1190" y="302" width="180" height="10" rx="4" fill="#10151C" fill-opacity="0.20"/>
  <rect x="1190" y="318" width="120" height="8" rx="4" fill="#10151C" fill-opacity="0.12"/>

  <circle cx="1066" cy="392" r="15" fill="#10151C" fill-opacity="0.16"/>
  <rect x="1092" y="358" width="280" height="70" rx="16" fill="#E9E1CD"/>
  <rect x="1112" y="376" width="220" height="11" rx="4" fill="#10151C" fill-opacity="0.22"/>
  <rect x="1112" y="395" width="170" height="9" rx="4" fill="#10151C" fill-opacity="0.13"/>
  <circle cx="1118" cy="414" r="3.5" fill="#10151C" fill-opacity="0.30"/>
  <circle cx="1132" cy="414" r="3.5" fill="#10151C" fill-opacity="0.30"/>
  <circle cx="1146" cy="414" r="3.5" fill="#10151C" fill-opacity="0.30"/>

  <rect x="1046" y="452" width="378" height="40" rx="20" fill="#FBF8F0" stroke="#10151C" stroke-opacity="0.12" stroke-width="1.5"/>
  <rect x="1068" y="468" width="150" height="9" rx="4" fill="#10151C" fill-opacity="0.12"/>
  <circle cx="1398" cy="472" r="15" fill="#C8A24B"/>
  <path d="M1391,472 H1404 M1399,466 L1405,472 L1399,478" stroke="#F7F3EA" stroke-width="3" fill="none" stroke-linecap="round" stroke-linejoin="round"/>

  <!-- ===== CARTE SATELLITE : notification ===== -->
  <g filter="url(#shadow)">
    <rect x="130" y="740" width="390" height="214" rx="18" fill="#F7F3EA" stroke="#10151C" stroke-opacity="0.14" stroke-width="1.5"/>
  </g>
  <circle cx="204" cy="812" r="36" fill="#C8A24B"/>
  <path d="M186,813 L199,826 L224,798" stroke="#F7F3EA" stroke-width="7" fill="none" stroke-linecap="round" stroke-linejoin="round"/>
  <rect x="262" y="788" width="200" height="15" rx="5" fill="#10151C" fill-opacity="0.28"/>
  <rect x="262" y="812" width="140" height="10" rx="4" fill="#10151C" fill-opacity="0.13"/>
  <rect x="162" y="868" width="90" height="8" rx="4" fill="#10151C" fill-opacity="0.12"/>
  <rect x="162" y="890" width="326" height="9" rx="4.5" fill="#10151C" fill-opacity="0.08"/>
  <rect x="162" y="890" width="238" height="9" rx="4.5" fill="#C8A24B"/>

  <!-- puce statut -->
  <g filter="url(#shadow)">
    <rect x="140" y="146" width="224" height="62" rx="31" fill="#F7F3EA" stroke="#10151C" stroke-opacity="0.14" stroke-width="1.5"/>
  </g>
  <circle cx="180" cy="177" r="10" fill="#C8A24B"/>
  <rect x="204" y="170" width="124" height="13" rx="5" fill="#10151C" fill-opacity="0.25"/>

  <!-- noeuds de connexion -->
  <g fill="#C8A24B" stroke="#ECE6D8" stroke-width="3">
    <circle cx="364" cy="177" r="7"/>
    <circle cx="560" cy="210" r="7"/>
    <circle cx="1234" cy="520" r="7"/>
    <circle cx="1112" cy="646" r="7"/>
    <circle cx="660" cy="860" r="7"/>
    <circle cx="522" cy="884" r="7"/>
  </g>
</svg>
